<svg width="16" height="17" viewBox="0 0 16 17" fill="none" xmlns="http://www.w3.org/2000/svg">
<path d="M15.004 8.38913L8.3157 15.0775C7.49633 15.8968 6.38502 16.3571 5.22626 16.3571C4.0675 16.3571 2.95619 15.8968 2.13683 15.0775C1.31746 14.2581 0.85714 13.1468 0.85714 11.988C0.85714 10.8293 1.31746 9.71795 2.13683 8.89858L8.82514 2.21026C9.37139 1.66402 10.1123 1.35714 10.8848 1.35714C11.6573 1.35714 12.3981 1.66402 12.9444 2.21026C13.4906 2.75651 13.7975 3.49738 13.7975 4.26989C13.7975 5.0424 13.4906 5.78327 12.9444 6.32951L6.2488 13.0178C5.97567 13.291 5.60524 13.4444 5.21898 13.4444C4.83273 13.4444 4.46229 13.291 4.18917 13.0178C3.91605 12.7447 3.76261 12.3743 3.76261 11.988C3.76261 11.6018 3.91605 11.2313 4.18917 10.9582L10.368 4.78661" stroke="#2EB85C" stroke-linecap="round" stroke-linejoin="round"/>
</svg>
