<svg width="105" height="56" viewBox="0 0 105 56" fill="none" xmlns="http://www.w3.org/2000/svg">
<rect width="104.794" height="56" fill="#FEFEFE"/>
<path d="M17.0634 12H4.3342C1.95046 12 0 13.9419 0 16.3151V39.6849C0 42.0581 1.95046 44 4.3342 44H17.0634C19.4471 44 21.3976 42.0581 21.3976 39.6849V16.3151C21.3976 13.9419 19.4471 12 17.0634 12V12Z" fill="url(#paint0_linear_1_561)"/>
<path d="M8.10868 14.1205H13.2889C13.6141 14.1205 13.8795 14.3809 13.8795 14.6988C13.8795 15.0169 13.6138 15.2771 13.2889 15.2771H8.10868C7.78376 15.2771 7.51807 15.0167 7.51807 14.6988C7.51807 14.3806 7.78402 14.1205 8.10868 14.1205Z" fill="#00997C"/>
<path fill-rule="evenodd" clip-rule="evenodd" d="M4.32531 16.241H17.0723C18.285 16.241 19.2771 17.1957 19.2771 18.3628V36.7516C19.2771 37.9187 18.285 38.8734 17.0723 38.8734H15.4087V38.8916H12.7229V39.1807H15.4087V42.8434L6.81983 38.8734H4.32531C3.11257 38.8734 2.12048 37.9187 2.12048 36.7516V18.3628C2.12048 17.1957 3.11257 16.241 4.32531 16.241ZM16.401 21.0782V20.1167H14.0047V21.0782H16.401ZM11.8972 21.0782V20.1167H9.50086V21.0782H11.8972ZM4.99707 32.8505H7.39344V31.847H4.99707V32.8505ZM7.39344 33.1124H4.99707V35.7464H7.39344V33.1124ZM4.99707 26.9991H7.39344V25.9818H4.99707V26.9991ZM7.39344 27.261H4.99707V29.881H7.39344V27.261ZM4.99707 21.3398V24.0158H7.39344V21.3398H4.99707ZM4.99707 20.1167V21.0782H7.39344V20.1167H4.99707ZM9.50086 35.7464H11.8972V33.1124H9.50086V35.7464ZM9.50086 32.8505H11.8972V31.847H9.50086V32.8505ZM9.50086 29.881H11.8972V27.261H9.50086V29.881ZM9.50086 26.9991H11.8972V25.9818H9.50086V26.9991ZM9.50086 21.3398V24.0158H11.8972V21.3398H9.50086ZM14.0047 35.7464H16.401V33.1124H14.0047V35.7464ZM14.0047 32.8505H16.401V31.847H14.0047V32.8505ZM14.0047 29.881H16.401V27.261H14.0047V29.881ZM14.0047 26.9991H16.401V25.9818H14.0047V26.9991ZM14.0047 21.3398V24.0158H16.401V21.3398H14.0047Z" fill="#FEFEFE"/>
<path fill-rule="evenodd" clip-rule="evenodd" d="M54.9013 37.6482V25.0365C54.9013 22.8173 54.2645 21.0853 52.9911 19.8133C51.7973 18.6225 50.0994 18 48.1096 18C46.1199 18 44.422 18.7308 43.2281 19.9486C42.0608 21.1664 41.3976 22.9797 41.3976 25.0365V37.6482H42.6975V30.9905H53.6013V37.6482H54.9013ZM42.6975 25.0365C42.6975 23.3857 43.2016 21.843 44.0771 20.8417C45.0587 19.7321 46.3852 19.1908 48.1096 19.1908C49.8606 19.1908 51.2136 19.7321 52.1952 20.8417C53.1238 21.8972 53.6013 23.3586 53.6013 25.226V29.8268H42.6975V25.0365ZM60.3119 18.3248H59.0119V30.9635C59.0119 33.0203 59.6752 34.8336 60.8425 36.0514C62.0364 37.2693 63.7077 38 65.6975 38C67.6872 38 69.3851 37.3776 70.5789 36.1868C71.8524 34.9148 72.4891 33.1827 72.4891 30.9635V18.3248H71.1626V30.774C71.1626 32.6414 70.7116 34.1029 69.783 35.1584C68.8015 36.268 67.4484 36.8092 65.6975 36.8092C63.973 36.8092 62.6466 36.2409 61.6649 35.1313C60.7629 34.1029 60.3119 32.7226 60.3119 30.9635V18.3248ZM104.794 38V25.3884C104.794 23.1692 104.158 21.4371 102.884 20.1651C101.69 18.9743 99.9923 18.3518 98.0025 18.3518C96.0128 18.3518 94.3149 19.0825 93.1211 20.3004C91.9537 21.5183 91.2905 23.3316 91.2905 25.3884V38H92.5904V31.3424H103.494V38H104.794ZM92.5904 25.3884C92.5904 23.7375 93.0945 22.1949 93.97 21.1935C94.9516 20.0839 96.2781 19.5426 98.0025 19.5426C99.7535 19.5426 101.107 20.0839 102.088 21.1935C103.017 22.249 103.494 23.7104 103.494 25.5778V30.1786H92.5904V25.3884ZM81.9192 36.8092C80.1962 36.8085 78.8708 36.2402 77.8897 35.1313C76.9877 34.1028 76.5367 32.7226 76.5367 30.9635V18.3248H75.2368V30.9635C75.2368 33.0203 75.9 34.8336 77.0673 36.0514C78.2605 37.2686 79.9308 37.9993 81.9192 38H88.5428V36.7897H81.9192V36.8092Z" fill="#363636"/>
<defs>
<linearGradient id="paint0_linear_1_561" x1="10.3882" y1="12.4382" x2="11.0213" y2="44.4558" gradientUnits="userSpaceOnUse">
<stop stop-color="#3FB288"/>
<stop offset="1" stop-color="#50B589"/>
</linearGradient>
</defs>
</svg>
