<svg width="40" height="40" viewBox="0 0 40 40" fill="none" xmlns="http://www.w3.org/2000/svg">
<g clip-path="url(#clip0_1_585)">
<circle cx="20" cy="19.8058" r="20" fill="#F1F1F1"/>
<path fill-rule="evenodd" clip-rule="evenodd" d="M25.3958 30.9042C23.7804 33.4698 21.9225 27.0783 19.8945 27.0783C17.8091 27.0783 15.8636 33.3547 14.1757 30.7266C12.7254 28.4611 11.4701 26.0231 10.4774 24.7653C0.210048 24.7653 0 39.6837 0 39.6837H39.9916C39.9916 39.6837 40.6968 24.7003 29.1517 24.7003C28.1314 26.0106 26.8661 28.5786 25.3958 30.9067V30.9042Z" fill="#B1B7C1"/>
<path fill-rule="evenodd" clip-rule="evenodd" d="M19.7495 24.7528C16.0087 24.7528 12.3153 14.328 12.3153 10.042C12.3153 5.7485 16.0087 2.27271 19.752 2.27271C23.4929 2.27271 27.1837 5.7485 27.1837 10.042C27.1837 14.328 23.4929 24.7478 19.752 24.7478L19.7495 24.7528Z" fill="#B1B7C1"/>
</g>
<defs>
<clipPath id="clip0_1_585">
<rect width="40" height="40" rx="20" fill="white"/>
</clipPath>
</defs>
</svg>
